<svg width="28" height="30" viewBox="0 0 28 30" fill="none" xmlns="http://www.w3.org/2000/svg">
<path d="M25.6667 2.30769H22.1667V1.15385C22.1667 0.847823 22.0437 0.554342 21.8249 0.33795C21.6062 0.121569 21.3094 0 21 0C20.6906 0 20.3938 0.121569 20.175 0.33795C19.9563 0.554342 19.8333 0.847823 19.8333 1.15385V2.30769H8.16667V1.15385C8.16667 0.847823 8.0437 0.554342 7.82495 0.33795C7.6062 0.121569 7.3094 0 7 0C6.69058 0 6.39383 0.121569 6.17504 0.33795C5.95625 0.554342 5.83333 0.847823 5.83333 1.15385V2.30769H2.33333C1.7145 2.30769 1.121 2.55082 0.683422 2.9836C0.245829 3.41638 0 4.00335 0 4.61538V27.6923C0 28.3043 0.245829 28.8913 0.683422 29.3241C1.121 29.7569 1.7145 30 2.33333 30H25.6667C26.2855 30 26.8789 29.7569 27.3166 29.3241C27.7542 28.8913 28 28.3043 28 27.6923V4.61538C28 4.00335 27.7542 3.41638 27.3166 2.9836C26.8789 2.55082 26.2855 2.30769 25.6667 2.30769ZM20.0521 16.9904L13.2417 23.3365C13.1357 23.4392 13.0104 23.5201 12.8728 23.5746C12.7351 23.629 12.5879 23.6559 12.4396 23.6538C12.1407 23.655 11.8531 23.5412 11.6375 23.3365L7.94792 19.875C7.82938 19.7728 7.73302 19.6478 7.66453 19.5077C7.59605 19.3678 7.55697 19.2155 7.5495 19.06C7.54215 18.9047 7.56653 18.7494 7.62125 18.6036C7.67608 18.4578 7.76008 18.3245 7.86835 18.2116C7.97662 18.0988 8.1067 18.0087 8.25102 17.9468C8.39533 17.885 8.55085 17.8527 8.70812 17.8517C8.86538 17.8508 9.02125 17.8814 9.16627 17.9415C9.31128 18.0017 9.44253 18.0903 9.55208 18.2019L12.4396 20.9135L18.4479 15.3173C18.5581 15.2115 18.6886 15.1285 18.8316 15.0733C18.9748 15.0181 19.1275 14.9917 19.281 14.9957C19.4347 14.9998 19.5858 15.0342 19.7258 15.0968C19.8657 15.1595 19.9915 15.2491 20.0958 15.3606C20.3083 15.5826 20.4231 15.8789 20.4148 16.1844C20.4066 16.49 20.2762 16.7798 20.0521 16.9904ZM25.6667 9.23077H2.33333V4.61538H5.83333V5.76923C5.83333 6.07525 5.95625 6.36873 6.17504 6.58513C6.39383 6.80151 6.69058 6.92308 7 6.92308C7.3094 6.92308 7.6062 6.80151 7.82495 6.58513C8.0437 6.36873 8.16667 6.07525 8.16667 5.76923V4.61538H19.8333V5.76923C19.8333 6.07525 19.9563 6.36873 20.175 6.58513C20.3938 6.80151 20.6906 6.92308 21 6.92308C21.3094 6.92308 21.6062 6.80151 21.8249 6.58513C22.0437 6.36873 22.1667 6.07525 22.1667 5.76923V4.61538H25.6667V9.23077Z" fill="black"/>
</svg>
