<svg width="30" height="29" viewBox="0 0 30 29" fill="none" xmlns="http://www.w3.org/2000/svg">
<path d="M30 14.3684C30 12.8284 28.28 11.5884 27.83 10.1984C27.36 8.76839 28.01 6.74837 27.14 5.54835C26.26 4.33839 24.13 4.33839 22.93 3.45839C21.73 2.58839 21.07 0.568375 19.64 0.0983431C18.25 -0.351608 16.54 0.888382 15 0.888382C13.47 0.888382 11.75 -0.351608 10.36 0.0983431C8.92999 0.568375 8.27002 2.58839 7.08002 3.45839C5.87 4.33839 3.73999 4.33839 2.87 5.54835C2 6.74837 2.64001 8.75838 2.17999 10.1984C1.72998 11.5884 0 12.8284 0 14.3684C0 15.9083 1.72998 17.1484 2.17999 18.5383C2.64001 19.9683 2 21.9884 2.87 23.1884C3.73999 24.3884 5.87 24.3984 7.08002 25.2783C8.27002 26.1484 8.92999 28.1684 10.36 28.6384C11.75 29.0884 13.47 27.8483 15 27.8483C16.54 27.8483 18.25 29.0884 19.64 28.6384C21.07 28.1684 21.73 26.1484 22.93 25.2783C24.13 24.3984 26.26 24.3884 27.14 23.1884C28.01 21.9884 27.36 19.9683 27.83 18.5383C28.28 17.1484 30 15.9083 30 14.3684ZM21.81 12.8284L18.8 15.7684L19.51 19.9184C19.59 20.3584 19.12 20.6884 18.72 20.4884L15 18.5283L11.28 20.4884C10.88 20.6884 10.42 20.3584 10.49 19.9184L11.2 15.7684L8.19 12.8284C7.87 12.5184 8.04999 11.9683 8.48999 11.9083L12.65 11.3084L14.52 7.52834C14.71 7.12837 15.29 7.12837 15.49 7.52834L17.35 11.3084L21.51 11.9083C21.95 11.9683 22.13 12.5184 21.81 12.8284Z" fill="black"/>
</svg>
