<svg width="37" height="37" viewBox="0 0 37 37" fill="none" xmlns="http://www.w3.org/2000/svg">
<path d="M36.7272 33.7848L28.8369 19.4835C28.0125 17.9893 25.8648 17.9893 25.0404 19.4835L17.1501 33.7848C16.3529 35.2296 17.3981 37 19.0483 37H34.8289C36.4792 37 37.5243 35.2296 36.7272 33.7848ZM26.9386 33.748C26.3399 33.748 25.8546 33.2627 25.8546 32.6641C25.8546 32.0654 26.3399 31.5801 26.9386 31.5801C27.5372 31.5801 28.0226 32.0654 28.0226 32.6641C28.0226 33.2627 27.5373 33.748 26.9386 33.748ZM28.0226 29.0508C28.0226 29.6494 27.5372 30.1348 26.9386 30.1348C26.3399 30.1348 25.8546 29.6494 25.8546 29.0508V24.3535C25.8546 23.7549 26.3399 23.2695 26.9386 23.2695C27.5372 23.2695 28.0226 23.7549 28.0226 24.3535V29.0508Z" fill="black"/>
<path d="M20.7615 22.7134L22.3968 19.7495C18.4935 19.0697 15.5164 15.6574 15.5164 11.5625C15.5164 6.98006 19.2445 3.25195 23.8269 3.25195C28.4093 3.25195 32.1374 6.98006 32.1374 11.5625C32.1374 13.7912 31.2554 15.8176 29.8223 17.3116C30.1748 17.6295 30.4779 18.0077 30.7143 18.4362L31.6295 20.095C33.94 17.9809 35.3894 14.9411 35.3894 11.5625C35.3894 5.17668 30.2127 0 23.8269 0C17.4411 0 12.2644 5.17668 12.2644 11.5625C12.2644 16.887 15.8637 21.37 20.7615 22.7134Z" fill="black"/>
<path d="M23.8476 5.41992C20.4606 5.41992 17.7051 8.17548 17.7051 11.5625C17.7051 14.8847 20.3566 17.5975 23.6544 17.7002C24.4685 16.7557 25.6629 16.1949 26.9386 16.1949C27.224 16.1949 27.5054 16.2233 27.7794 16.2775C29.1295 15.1498 29.9902 13.4551 29.9902 11.5625C29.9902 8.17548 27.2347 5.41992 23.8476 5.41992Z" fill="black"/>
<path d="M12.4346 19.1836L1.73113 27.4406C-0.392757 29.079 -0.593944 32.2107 1.30281 34.1074C3.19956 36.0042 6.33112 35.803 7.9696 33.6791L16.223 22.9802C14.7171 21.9708 13.4318 20.6762 12.4346 19.1836ZM4.36882 32.1254C3.77017 32.1254 3.28484 31.6401 3.28484 31.0414C3.28484 30.4428 3.77017 29.9574 4.36882 29.9574C4.96747 29.9574 5.45281 30.4428 5.45281 31.0414C5.45281 31.6401 4.96747 32.1254 4.36882 32.1254Z" fill="black"/>
</svg>
