<svg width="35" height="30" viewBox="0 0 35 30" fill="none" xmlns="http://www.w3.org/2000/svg">
<path fill-rule="evenodd" clip-rule="evenodd" d="M33.4009 16.8026L31.8751 16.06C33.2135 13.8973 33.6819 11.2312 32.9558 8.60198C32.252 6.05329 30.5578 4.02077 28.3836 2.78443L29.2003 1.33508C31.7685 2.78083 33.7717 5.17144 34.6009 8.17429C35.4393 11.2105 34.9178 14.2886 33.4009 16.8026ZM30.6774 15.4773L29.1924 14.7546L29.1544 14.7333C30.12 13.1848 30.4607 11.2725 29.9398 9.38629C29.4643 7.66406 28.353 6.27524 26.9201 5.38179L27.74 3.92677C29.5664 5.03163 30.9839 6.782 31.5849 8.95853C32.2184 11.2527 31.8227 13.5771 30.6774 15.4773ZM28.4197 20.6882C28.4797 20.9238 28.3724 21.1572 28.1746 21.2842L28.1839 21.3207C28.1839 21.3207 28.1655 21.3126 28.1383 21.3008C28.0933 21.3256 28.0497 21.3529 27.9969 21.3656L27.6229 21.4552C27.3619 21.5178 27.1002 21.3966 26.9781 21.1779C26.9401 17.8365 26.4684 14.1746 25.5085 10.405C24.5792 6.75547 23.2924 3.40374 21.7867 0.49483C21.8488 0.322019 21.9963 0.181744 22.1934 0.134475L22.5674 0.0448027C22.6201 0.0321353 22.6717 0.0366688 22.7234 0.0382023C22.7419 0.0154676 22.7544 0 22.7544 0L22.7636 0.0365355C22.9996 0.0596036 23.2066 0.217546 23.2665 0.453227C23.2665 0.453227 25.6935 5.39072 26.9995 10.5195C28.2697 15.5062 28.4197 20.6882 28.4197 20.6882ZM24.9575 10.5371C25.8418 14.0094 26.2218 17.4225 26.2599 20.5974C23.2117 19.6062 15.9177 17.9102 7.54077 19.0802C6.8326 17.7729 6.28221 16.4266 5.9775 15.23C5.68749 14.0913 5.52978 12.7317 5.51441 11.3298C13.6347 8.54391 19.3051 3.64888 21.4768 1.42502C22.8846 4.15765 24.1124 7.21843 24.9575 10.5371ZM6.34164 19.2489C5.61707 19.3783 4.88667 19.5276 4.15105 19.704C4.0711 19.7232 3.99108 19.7194 3.91127 19.7036C2.26922 19.8064 0.737249 18.7647 0.329739 17.1642L0.101347 16.2674C-0.307948 14.66 0.557102 13.0391 2.07171 12.3935C2.12936 12.3471 2.19181 12.3101 2.2638 12.2928C2.98452 12.12 3.68816 11.927 4.37725 11.7194C4.41733 13.0533 4.58313 14.3473 4.87528 15.4944C5.18266 16.7018 5.69057 17.9901 6.34164 19.2489ZM8.95868 20.0479C11.1493 19.4615 14.6323 19.3866 16.8075 19.8683C17.3304 21.995 14.7892 23.1884 17.0602 27.9657C17.3611 29.0661 16.1747 30.0752 14.0183 29.9956C14.1213 29.942 11.5923 29.6727 10.4826 23.382C10.3839 22.6027 9.45362 21.5874 8.95553 21.1837C8.30549 20.6567 8.01485 20.3054 8.95868 20.0479Z" fill="black"/>
</svg>
