<svg width="37" height="37" viewBox="0 0 37 37" fill="none" xmlns="http://www.w3.org/2000/svg">
<path d="M37 15.4167V21.5833C37 23.284 35.6173 24.6667 33.9167 24.6667H33.0772C31.898 31.6548 25.8193 37 18.5 37C17.8183 37 17.2667 36.4484 17.2667 35.7667C17.2667 35.085 17.8183 34.5333 18.5 34.5333C25.3002 34.5333 30.8333 29.0002 30.8333 22.2V14.8C30.8333 7.9998 25.3002 2.46667 18.5 2.46667C11.6998 2.46667 6.16667 7.9998 6.16667 14.8V23.4333C6.16667 24.115 5.61504 24.6667 4.93333 24.6667H3.08333C1.38268 24.6667 0 23.284 0 21.5833V15.4167C0 13.716 1.38268 12.3333 3.08333 12.3333H3.92282C5.10195 5.34525 11.1807 0 18.5 0C25.8193 0 31.898 5.34525 33.0772 12.3333H33.9167C35.6173 12.3333 37 13.716 37 15.4167ZM18.5 4.93333C13.0596 4.93333 8.63333 9.3596 8.63333 14.8V20.9667C8.63333 26.4071 13.0596 30.8333 18.5 30.8333C23.9404 30.8333 28.3667 26.4071 28.3667 20.9667V14.8C28.3667 9.3596 23.9404 4.93333 18.5 4.93333Z" fill="black"/>
</svg>
