<svg width="273" height="27" viewBox="0 0 273 27" fill="none" xmlns="http://www.w3.org/2000/svg">
<path d="M96.0508 3.07952V26.6913H100.068V0.0112645M204.199 1.41851L197.705 22.4464L191.21 1.41851H185.283V26.7028H189.289V6.18238L195.505 26.7028H199.916L206.121 6.40154V26.7028H210.138V1.41851M151.989 3.07952V11.7883H141.535V1.41851H137.518V26.7028H141.535V15.3987H151.989V26.7028H155.994V0.0112645M239.855 15.3987H249.903V11.7998H239.855V5.0289H249.024L251.721 1.41851H235.838V26.7028H251.026V23.1155H239.855M13.7993 2.13367L10.662 5.24806C16.786 6.43615 17.7353 12.1574 17.7353 14.0491C17.7353 16.1715 16.6587 23.0924 8.26567 23.1155H0V26.7028H9.06446C16.7629 26.7028 21.7292 21.7313 21.7292 14.0491C21.7292 8.08562 18.7309 3.76007 13.7761 2.12213" fill="black"/>
<path d="M4.02838 8.25946V5.02971H7.26981L10.8933 1.41932H0.0113052V12.262" fill="#818181"/>
<path d="M88.3884 26.7031H92.6254L83.4799 1.40724H79.0229L69.8774 26.7031H74.1145L76.1867 20.3935H86.293M77.3675 16.7831L81.2341 5.01764L85.1006 16.7831H77.3675ZM177.783 26.7031H182.02L172.874 1.40724H168.417L159.272 26.7031H163.509L165.581 20.3935H175.687M166.762 16.7831L170.628 5.01764L174.495 16.7831H166.75H166.762ZM42.0358 3.07979V16.1833C42.0358 20.5089 40.1025 23.3695 35.5761 23.381C31.0496 23.3695 29.1395 20.5089 29.1395 16.1833V1.41878H25.134V16.3217C25.1108 22.2045 27.623 26.9568 35.5413 26.9914C43.4597 27.026 35.5645 26.9914 35.5761 26.9914H35.6108C43.5292 26.9568 46.0413 22.2045 46.0413 16.3217V0M118.626 14.0609C118.626 11.9501 119.275 5.04071 127.668 5.04071H131.349L134.046 1.41878H126.892C119.194 1.41878 114.621 6.37874 114.621 14.0609C114.621 21.7431 119.194 26.7031 126.892 26.7031H133.143V23.0811H127.656C119.275 23.0811 118.615 16.1718 118.615 14.0609M68.0599 19.24C68.0599 16.7716 66.856 14.58 64.9921 13.2189C66.2409 11.9175 66.9376 10.1863 66.937 8.3858C66.937 4.53318 64.0544 1.40724 59.9332 1.40724H49.6995V26.7031H60.6509C62.6224 26.6788 64.505 25.8822 65.8915 24.4856C67.2781 23.0889 68.057 21.2045 68.0599 19.24ZM59.9332 5.01764C61.8086 5.01764 62.9199 6.51716 62.9199 8.3858C62.9199 10.2544 61.8086 11.7886 59.9332 11.7886H53.705V5.01764H59.9332ZM60.5699 23.0927H53.7165V15.399H60.5699C62.7115 15.399 64.0544 17.1061 64.0544 19.24C64.0544 21.374 62.7115 23.0927 60.5699 23.0927ZM232.528 19.24C232.528 16.7716 231.324 14.58 229.461 13.2189C230.709 11.9175 231.406 10.1863 231.405 8.3858C231.405 4.53318 228.523 1.40724 224.402 1.40724H214.168V26.7031H225.119C227.091 26.6788 228.973 25.8822 230.36 24.4856C231.746 23.0889 232.525 21.2045 232.528 19.24ZM224.402 5.01764C226.277 5.01764 227.388 6.51716 227.388 8.3858C227.388 10.2544 226.277 11.7886 224.402 11.7886H218.173V5.01764H224.402ZM225.038 23.0927H218.185V15.399H225.038C227.18 15.399 228.523 17.1061 228.523 19.24C228.523 21.374 227.18 23.0927 225.038 23.0927ZM273 26.7031L267.096 15.0183C270.048 14.2224 271.854 11.4425 271.854 8.3858C271.854 4.53318 268.705 1.40724 264.85 1.40724H254.616V26.7031H258.633V15.399H263.206L268.601 26.7031M258.633 5.01764H264.85C266.714 5.01764 267.837 6.51716 267.837 8.3858C267.837 10.2544 266.714 11.7886 264.85 11.7886H258.633V5.01764Z" fill="black"/>
</svg>
