<svg width="63" height="77" viewBox="0 0 63 77" fill="none" xmlns="http://www.w3.org/2000/svg">
<path fill-rule="evenodd" clip-rule="evenodd" d="M59.8532 59.4442C60.764 57.6816 61.4138 55.7821 61.7206 53.8344C62.3771 49.4218 62.9919 43.415 63 35.2138C62.9919 27.0127 62.3771 21.0059 61.7206 16.5932C60.5716 9.32158 54.6627 2.71616 48.1578 1.43177C44.2091 0.696336 38.837 0.00902379 31.5007 0C24.1643 0.00902379 18.7909 0.696336 14.8436 1.43027C8.33865 2.71616 2.42975 9.32007 1.27945 16.5917C0.62291 21.0044 0.00807227 27.0112 0 35.2123C0.00807227 43.4135 0.62291 49.4203 1.27945 53.8329C1.58755 55.7806 2.23602 57.6816 3.14684 59.4442C4.22574 61.5333 5.63481 63.3306 7.2744 64.7844L16.1791 68.873C16.8231 68.9533 17.4745 68.9944 18.1303 68.9944H44.8697C45.6567 68.9944 46.4363 68.9355 47.2051 68.8203L47.9155 68.5L55.7065 64.803C57.3543 63.3455 58.77 61.5412 59.8532 59.4442ZM17.1589 58.1388C14.2987 58.1388 11.9792 55.5459 11.9792 52.3485C11.9792 49.1511 14.2987 46.5582 17.1589 46.5582C20.0192 46.5582 22.3387 49.1511 22.3387 52.3485C22.3387 55.5459 20.0192 58.1388 17.1589 58.1388ZM45.8478 58.1388C42.9875 58.1388 40.6681 55.5459 40.6681 52.3485C40.6681 49.1511 42.9875 46.5582 45.8478 46.5582C48.7081 46.5582 51.0275 49.1511 51.0275 52.3485C51.0275 55.5459 48.7081 58.1388 45.8478 58.1388ZM52.8155 18.8191C52.6688 22.2993 52.3594 25.05 52.0352 27.2278C51.2549 32.1683 47.2402 36.6546 42.8207 37.5284C40.1393 38.0278 36.488 38.494 31.5034 38.5C26.5187 38.494 22.8687 38.0262 20.186 37.5284C15.7665 36.6561 11.7519 32.1683 10.9716 27.2278C10.6473 25.0485 10.3379 22.2978 10.1912 18.8191C10.093 16.5075 11.7546 14.5779 13.8238 14.5779H49.1816C51.2522 14.5779 52.9137 16.5075 52.8155 18.8191Z" fill="black"/>
<path d="M7.2744 64.7844L16.1791 68.873C15.8852 68.8363 15.5928 68.7915 15.3023 68.7387L10.8693 76.1668C10.5572 76.6887 10.0338 77 9.47281 77L4.80838 76.9925C3.47107 76.991 2.67461 75.3246 3.41726 74.0808L8.41265 65.7112C8.02236 65.42 7.64257 65.1109 7.2744 64.7844Z" fill="#0C56B7"/>
<path fill-rule="evenodd" clip-rule="evenodd" d="M55.7065 64.803C55.3464 65.1215 54.9753 65.4234 54.5941 65.7082L59.5908 74.0808C60.3321 75.3246 59.537 76.991 58.1997 76.9925L53.5353 77C52.9743 77.0015 52.4496 76.6887 52.1388 76.1668L47.7044 68.7372C47.5385 68.7675 47.372 68.7952 47.2051 68.8203L47.9155 68.5L55.7065 64.803Z" fill="#0C56B7"/>
</svg>
