<svg width="170" height="97" viewBox="0 0 170 97" fill="none" xmlns="http://www.w3.org/2000/svg">
<path d="M169.427 10.6969C162.614 4.06903 153.213 0 142.864 0C122.122 0 105.305 16.3595 105.305 36.5367C105.305 56.7152 122.122 73.0733 142.864 73.0733C153.213 73.0733 162.614 69.0056 169.427 62.3777L142.864 36.5367L169.427 10.6969ZM46.6146 19.0029C46.6146 9.31236 40.6207 1.46788 33.2034 1.46788H0V71.6478H33.2047C40.6207 71.6478 46.6146 63.7622 46.6146 54.0294C46.6146 44.8427 41.2251 37.2918 34.4107 36.4956C41.2677 35.6982 46.6146 28.1884 46.6146 19.0029ZM101.251 18.9606C101.251 9.27006 95.2571 1.42685 87.8397 1.42685H53.8599V71.8157H107.676L89.1324 36.4533C95.9041 35.6149 101.251 28.105 101.251 18.9606Z" fill="#207FFB"/>
<path d="M1.2937 97L5.45581 85.36H10.1055L14.2502 97H9.56568L9.18255 95.4446H6.08274L5.62996 97H1.2937ZM7.00572 92.2312H8.38148L7.75455 89.6844L7.00572 92.2312Z" fill="white"/>
<path d="M16.3939 97V85.36H22.1581C25.3624 85.36 26.6163 87.0864 26.6163 89.3938C26.6163 90.7271 26.0416 91.9235 25.0141 92.556L27.4174 96.9829V97H22.3497L20.5037 93.0345V97H16.3939ZM21.5834 88.7785H20.4515V90.3852H21.566C22.0885 90.3852 22.489 90.0946 22.489 89.5819C22.489 89.0691 22.1059 88.7785 21.5834 88.7785Z" fill="white"/>
<path d="M29.062 97L33.2241 85.36H37.8738L42.0185 97H37.3339L36.9508 95.4446H33.851L33.3982 97H29.062ZM34.774 92.2312H36.1497L35.5228 89.6844L34.774 92.2312Z" fill="white"/>
<path d="M44.1621 97V85.36H50.9364C52.9043 85.36 54.2801 86.4881 54.2801 88.5392C54.2801 89.5648 53.8795 90.3681 53.2178 90.9493C54.1756 91.462 54.7677 92.3167 54.7677 93.5815C54.7677 95.8035 53.2003 97 50.9887 97H44.1621ZM48.2546 93.7353H49.9612C50.3443 93.7353 50.6926 93.5302 50.6926 93.0516C50.6926 92.5901 50.3792 92.4021 49.9438 92.4021H48.2546V93.7353ZM48.2546 89.8382H49.9438C50.2921 89.8382 50.623 89.6844 50.623 89.2058C50.623 88.7614 50.3269 88.5905 49.9438 88.5905H48.2546V89.8382Z" fill="white"/>
<path d="M57.0939 97V85.36H61.2037V97H57.0939Z" fill="white"/>
<path d="M63.3505 97L67.5126 85.36H72.1623L76.307 97H71.6225L71.2394 95.4446H68.1395L67.6868 97H63.3505ZM69.0625 92.2312H70.4383L69.8114 89.6844L69.0625 92.2312Z" fill="white"/>
</svg>
