<svg width="170" height="97" viewBox="0 0 170 97" fill="none" xmlns="http://www.w3.org/2000/svg">
<path d="M169.427 10.6969C162.614 4.06903 153.213 0 142.864 0C122.122 0 105.305 16.3595 105.305 36.5367C105.305 56.7152 122.122 73.0733 142.864 73.0733C153.213 73.0733 162.614 69.0056 169.427 62.3777L142.864 36.5367L169.427 10.6969ZM46.6146 19.0029C46.6146 9.31236 40.6207 1.46788 33.2034 1.46788H0V71.6478H33.2047C40.6207 71.6478 46.6146 63.7622 46.6146 54.0294C46.6146 44.8427 41.2251 37.2918 34.4107 36.4956C41.2677 35.6982 46.6146 28.1884 46.6146 19.0029ZM101.251 18.9606C101.251 9.27006 95.2571 1.42685 87.8397 1.42685H53.8599V71.8157H107.676L89.1324 36.4533C95.9041 35.6149 101.251 28.105 101.251 18.9606Z" fill="#0C56B7"/>
<path d="M0 97L4.16211 85.36H8.81183L12.9565 97H8.27197L7.88885 95.4446H4.78904L4.33626 97H0ZM5.71202 92.2312H7.08778L6.46085 89.6844L5.71202 92.2312Z" fill="black"/>
<path d="M15.1002 97V85.36H20.8644C24.0687 85.36 25.3226 87.0864 25.3226 89.3938C25.3226 90.7271 24.7479 91.9235 23.7204 92.556L26.1237 96.9829V97H21.056L19.21 93.0345V97H15.1002ZM20.2897 88.7785H19.1578V90.3852H20.2723C20.7948 90.3852 21.1953 90.0946 21.1953 89.5819C21.1953 89.0691 20.8122 88.7785 20.2897 88.7785Z" fill="black"/>
<path d="M27.7683 97L31.9304 85.36H36.5801L40.7248 97H36.0402L35.6571 95.4446H32.5573L32.1045 97H27.7683ZM33.4803 92.2312H34.856L34.2291 89.6844L33.4803 92.2312Z" fill="black"/>
<path d="M42.8684 97V85.36H49.6427C51.6106 85.36 52.9864 86.4881 52.9864 88.5392C52.9864 89.5648 52.5858 90.3681 51.9241 90.9493C52.8819 91.462 53.474 92.3167 53.474 93.5815C53.474 95.8035 51.9066 97 49.695 97H42.8684ZM46.9609 93.7353H48.6675C49.0506 93.7353 49.3989 93.5302 49.3989 93.0516C49.3989 92.5901 49.0855 92.4021 48.6501 92.4021H46.9609V93.7353ZM46.9609 89.8382H48.6501C48.9984 89.8382 49.3293 89.6844 49.3293 89.2058C49.3293 88.7614 49.0332 88.5905 48.6501 88.5905H46.9609V89.8382Z" fill="black"/>
<path d="M55.8002 97V85.36H59.91V97H55.8002Z" fill="black"/>
<path d="M62.0568 97L66.2189 85.36H70.8686L75.0133 97H70.3288L69.9457 95.4446H66.8458L66.3931 97H62.0568ZM67.7688 92.2312H69.1446L68.5177 89.6844L67.7688 92.2312Z" fill="black"/>
</svg>
