<svg width="272" height="152" viewBox="0 0 272 152" fill="none" xmlns="http://www.w3.org/2000/svg">
<path d="M229.356 0C245.97 0 261.062 6.62642 272 17.4199L229.356 59.5L272 101.582C261.062 112.376 245.97 119 229.356 119C196.057 119 169.058 92.3607 169.058 59.5C169.058 26.6414 196.057 0 229.356 0Z" fill="white"/>
<path d="M53.3052 2.39044C65.2131 2.39044 74.8358 15.1652 74.8358 30.9463C74.8358 45.9048 66.2518 58.1346 55.2434 59.4332C66.1833 60.7297 74.8358 73.0263 74.8358 87.9869C74.8358 103.837 65.2131 116.678 53.3073 116.678H0V2.39044H53.3052Z" fill="white"/>
<path d="M141.019 2.32363C152.927 2.32363 162.55 15.0963 162.55 30.8774C162.55 45.7691 153.966 57.9989 143.094 59.3643L172.864 116.952H86.4675V2.32363H141.019Z" fill="white"/>
<path d="M0 152L6.71368 133H14.2139L20.8995 152H13.3431L12.7251 149.461H7.72494L6.99458 152H0ZM9.21375 144.216H11.4329L10.4216 140.059L9.21375 144.216Z" fill="white"/>
<path d="M24.3573 152V133H33.6553C38.824 133 40.8465 135.818 40.8465 139.584C40.8465 141.761 39.9195 143.714 38.2622 144.746L42.1387 151.972V152H33.9643L30.9867 145.527V152H24.3573ZM32.7283 138.58H30.9024V141.203H32.7002C33.5429 141.203 34.189 140.728 34.189 139.891C34.189 139.054 33.571 138.58 32.7283 138.58Z" fill="white"/>
<path d="M44.7915 152L51.5052 133H59.0054L65.691 152H58.1346L57.5166 149.461H52.5164L51.7861 152H44.7915ZM54.0052 144.216H56.2244L55.2131 140.059L54.0052 144.216Z" fill="white"/>
<path d="M69.1488 152V133H80.076C83.2503 133 85.4695 134.841 85.4695 138.189C85.4695 139.863 84.8234 141.175 83.7559 142.123C85.3009 142.96 86.256 144.355 86.256 146.42C86.256 150.047 83.7278 152 80.1603 152H69.1488ZM75.7501 146.671H78.503C79.1209 146.671 79.6828 146.336 79.6828 145.555C79.6828 144.802 79.1771 144.495 78.4749 144.495H75.7501V146.671ZM75.7501 140.31H78.4749C79.0367 140.31 79.5704 140.059 79.5704 139.278C79.5704 138.552 79.0929 138.273 78.4749 138.273H75.7501V140.31Z" fill="white"/>
<path d="M90.0083 152V133H96.6377V152H90.0083Z" fill="white"/>
<path d="M100.101 152L106.814 133H114.314L121 152H113.444L112.826 149.461H107.825L107.095 152H100.101ZM109.314 144.216H111.533L110.522 140.059L109.314 144.216Z" fill="white"/>
</svg>
