<svg width="272" height="119" viewBox="0 0 272 119" fill="none" xmlns="http://www.w3.org/2000/svg">
<path d="M229.356 0C245.97 0 261.062 6.62642 272 17.4199L229.356 59.5L272 101.582C261.062 112.376 245.97 119 229.356 119C196.057 119 169.058 92.3607 169.058 59.5C169.058 26.6414 196.057 0 229.356 0Z" fill="white"/>
<path d="M53.3052 2.39044C65.2131 2.39044 74.8358 15.1652 74.8358 30.9463C74.8358 45.9048 66.2518 58.1346 55.2434 59.4332C66.1833 60.7297 74.8358 73.0263 74.8358 87.9869C74.8358 103.837 65.2131 116.678 53.3073 116.678H0V2.39044H53.3052Z" fill="white"/>
<path d="M141.019 2.32363C152.927 2.32363 162.55 15.0963 162.55 30.8774C162.55 45.7691 153.966 57.9989 143.094 59.3643L172.864 116.952H86.4675V2.32363H141.019Z" fill="white"/>
</svg>
